<svg
      version="1.0"
      xmlns="http://www.w3.org/2000/svg"
      width="50.000000pt"
      height="50.000000pt"
      viewBox="0 0 539.000000 463.000000"
      preserveAspectRatio="xMidYMid meet"
    >
      <g
        transform="translate(0.000000,463.000000) scale(0.100000,-0.100000)"
        fill="#1788ae"
        stroke="none"
      >
        <path
          d="M1845 3973 c-103 -236 -221 -502 -261 -593 -39 -91 -131 -300 -204
-465 -72 -165 -148 -338 -168 -384 -21 -46 -69 -156 -108 -245 l-71 -161 1270
-3 c781 -1 1275 2 1280 7 11 11 43 81 229 506 149 340 220 502 299 680 27 61
49 113 49 118 0 4 -247 7 -550 7 -322 0 -550 4 -550 9 0 5 41 101 90 213 50
111 108 241 129 288 l37 85 539 3 c335 1 560 -2 595 -8 222 -41 409 -251 434
-490 13 -119 -5 -181 -131 -470 -237 -540 -266 -607 -303 -695 -119 -282 -190
-403 -309 -528 -126 -132 -259 -218 -425 -276 -170 -60 -190 -61 -1082 -61
-637 0 -814 -3 -821 -12 -5 -7 -38 -78 -73 -158 -34 -80 -93 -212 -130 -295
-37 -82 -100 -226 -140 -318 -40 -93 -78 -171 -84 -173 -6 -2 -156 -3 -333 -2
l-322 3 73 165 c40 91 82 185 93 210 12 25 55 124 96 221 42 97 94 216 117
264 22 48 40 89 40 91 0 2 -87 4 -193 4 l-193 0 -99 -222 c-218 -492 -475
-1082 -475 -1090 0 -4 323 -7 717 -6 l717 3 79 175 c44 96 101 225 127 285 26
61 82 191 125 290 43 99 82 186 88 193 7 9 154 12 672 12 788 0 890 8 1110 83
225 77 367 166 543 340 167 164 248 294 395 632 36 83 136 310 222 505 243
549 255 586 255 783 0 404 -267 756 -660 874 l-95 28 -700 0 -700 0 -143 -325
c-79 -179 -183 -415 -232 -525 -157 -355 -200 -454 -200 -459 0 -3 248 -6 550
-6 303 0 550 -3 550 -7 0 -16 -254 -588 -264 -595 -15 -10 -1754 -10 -1760 0
-4 7 99 250 196 462 14 30 56 125 93 210 82 191 196 450 394 897 83 189 151
345 151 348 0 3 -87 5 -193 5 l-193 0 -189 -427z"
        />
      </g>
    </svg>